<?xml version="1.0" standalone="no"?>
<!DOCTYPE svg PUBLIC "-//W3C//DTD SVG 20001102//EN"
"http://www.w3.org/TR/2000/CR-SVG-20001102/DTD/svg-20001102.dtd">
<svg width="768" height="259"
	xmlns:sodipodi="http://sodipodi.sourceforge.net/DTD/sodipodi-0.dtd">
<desc>wmf2svg</desc>
<line x1="169.890137" y1="117.902359" x2="229.358047" y2="117.902359" 
	style="stroke-width:4.473924; stroke-linecap:round; stroke-linejoin:round; stroke-dasharray:none; stroke:black" />
<text x="0" y="0" style="font-family:Times; font-style:normal; font-weight:normal; font-size:102.759827; fill:black" transform="matrix(1.000000 -0.000000 0.000000 1.000000 398.866974 143.592331)"
	>,</text>
<text x="0" y="0" style="font-family:Times; font-style:normal; font-weight:normal; font-size:102.759827; fill:black" transform="matrix(1.000000 -0.000000 0.000000 1.000000 549.315735 143.592331)"
	>Z</text>
<text x="0" y="0" style="font-family:Times; font-style:normal; font-weight:normal; font-size:102.759827; fill:black" transform="matrix(1.000000 -0.000000 0.000000 1.000000 180.818008 223.570480)"
	>2</text>
<text x="0" y="0" style="font-family:Times; font-style:italic; font-weight:normal; font-size:102.759827; fill:black" transform="matrix(1.000000 -0.000000 0.000000 1.000000 40.915947 143.592331)"
	>á</text>
<text x="0" y="0" style="font-family:Times; font-style:italic; font-weight:normal; font-size:102.759827; fill:black" transform="matrix(1.000000 -0.000000 0.000000 1.000000 40.915947 143.592331)"
	>k</text>
<text x="0" y="0" style="font-family:Times; font-style:italic; font-weight:normal; font-size:102.759827; fill:black" transform="matrix(1.000000 -0.000000 0.000000 1.000000 162.266052 143.592331)"
	>k</text>
<text x="0" y="0" style="font-family:Symbol; font-style:normal; font-weight:normal; font-size:102.759827; fill:black" transform="matrix(1.000000 -0.000000 0.000000 1.000000 170.017212 79.125069)"
	>p</text>
<text x="0" y="0" style="font-family:Symbol; font-style:normal; font-weight:normal; font-size:102.759827; fill:black" transform="matrix(1.000000 -0.000000 0.000000 1.000000 343.211121 143.592331)"
	>p</text>
<text x="0" y="0" style="font-family:Symbol; font-style:normal; font-weight:normal; font-size:102.759827; fill:black" transform="matrix(1.000000 -0.000000 0.000000 1.000000 0.000000 87.203674)"
	>æ</text>
<text x="0" y="0" style="font-family:Symbol; font-style:normal; font-weight:normal; font-size:102.759827; fill:black" transform="matrix(1.000000 -0.000000 0.000000 1.000000 606.369324 87.203674)"
	>ö</text>
<text x="0" y="0" style="font-family:Symbol; font-style:normal; font-weight:normal; font-size:102.759827; fill:black" transform="matrix(1.000000 -0.000000 0.000000 1.000000 104.195900 143.592331)"
	>¹</text>
<text x="0" y="0" style="font-family:Symbol; font-style:normal; font-weight:normal; font-size:102.759827; fill:black" transform="matrix(1.000000 -0.000000 0.000000 1.000000 246.512253 143.592331)"
	>+</text>
<text x="0" y="0" style="font-family:Symbol; font-style:normal; font-weight:normal; font-size:102.759827; fill:black" transform="matrix(1.000000 -0.000000 0.000000 1.000000 479.809387 143.592331)"
	>Î</text>
<text x="0" y="0" style="font-family:Symbol; font-style:normal; font-weight:normal; font-size:102.759827; fill:black" transform="matrix(1.000000 -0.000000 0.000000 1.000000 0.000000 170.736420)"
	>ç</text>
<text x="0" y="0" style="font-family:Symbol; font-style:normal; font-weight:normal; font-size:102.759827; fill:black" transform="matrix(1.000000 -0.000000 0.000000 1.000000 606.369324 170.736420)"
	>÷</text>
<text x="0" y="0" style="font-family:Symbol; font-style:normal; font-weight:normal; font-size:102.759827; fill:black" transform="matrix(1.000000 -0.000000 0.000000 1.000000 0.000000 235.365250)"
	>è</text>
<text x="0" y="0" style="font-family:Symbol; font-style:normal; font-weight:normal; font-size:102.759827; fill:black" transform="matrix(1.000000 -0.000000 0.000000 1.000000 606.369324 235.365250)"
	>ø</text>
</svg>
