<svg viewBox="0 0 2014 1674.64" xmlns="http://www.w3.org/2000/svg" xmlns:xlink="http://www.w3.org/1999/xlink" xml:space="preserve" overflow="hidden"><path d="M44.883 1173.3C44.883 1342.88 137.019 1490.67 273.963 1569.89L273.963 776.36C137.023 855.576 44.883 1003.73 44.883 1173.3Z"/><path d="M1496.5 173.21C1157.96-7.97 856.04-7.98 517.52 173.21 402.18 234.936 285.42 374.52 285.42 521.87L285.42 1569.87 411.41 1569.87 411.41 521.87C411.41 421.09 532.65 292.69 636.95 249.49 917.1 133.45 1096.95 133.45 1377.06 249.49 1481.36 292.693 1602.6 421.09 1602.6 521.87L1602.6 1569.87 1728.59 1569.87 1728.59 521.87C1728.59 374.51 1611.83 234.93 1496.49 173.21Z"/><path d="M1740 776.38 1740 1569.91C1876.94 1490.7 1969.08 1342.91 1969.08 1173.32 1969.08 1003.75 1876.95 855.59 1740 776.38Z"/><path d="M541.72 709.03 471.075 709.03C443.874 709.03 421.823 731.081 421.823 758.283L421.823 1588.07C421.823 1615.27 443.873 1637.32 471.075 1637.32L541.72 1637.32C568.921 1637.32 590.972 1615.27 590.972 1588.07L590.972 758.283C590.972 731.081 568.922 709.03 541.72 709.03Z"/><path d="M1542 709.03 1471.35 709.03C1444.15 709.03 1422.1 731.081 1422.1 758.283L1422.1 1588.07C1422.1 1615.27 1444.15 1637.32 1471.35 1637.32L1542 1637.32C1569.2 1637.32 1591.25 1615.27 1591.25 1588.07L1591.25 758.283C1591.25 731.081 1569.2 709.03 1542 709.03Z"/><path d="M595.97 1132.8C600.292 1132.58 604.613 1132.62 608.935 1132.8 609.132 1137.36 612.559 1157.2 613.406 1228.4 613.406 1229.84 613.704 1231.25 614.134 1232.63 614.825 1245.83 613.466 1253.96 615.002 1258.93 615.388 1271.83 615.055 1284.76 615.16 1297.67L625.627 1297.67C636.362 1260.18 634.412 1210.88 635.568 1182.66 636.638 1179.56 636.182 1176.23 636.436 1173.03 637.051 1170.99 638.033 1163.04 638.189 1161.51 638.557 1161.89 639.302 1162.64 639.67 1163.02 639.749 1167.84 639.965 1168.11 641.677 1175.85 642.019 1175.85 642.711 1175.84 643.053 1175.84 643.474 1174.07 643.93 1172.32 644.368 1170.56L645.025 1170.55C645.227 1175.17 644.306 1179.93 645.709 1184.41 646.2 1188.79 645.201 1193.3 646.559 1197.56 646.673 1199.24 646.734 1200.92 646.822 1202.61 647.374 1201.69 647.944 1200.76 648.514 1199.84 648.566 1186.71 648.922 1200.52 649.408 1182.36 649.715 1182.91 650.328 1184.02 650.635 1184.57 650.951 1184.59 651.573 1184.61 651.88 1184.63 654.518 1172.74 654.44 1166.34 655.527 1132.77 663.679 1132.56 671.841 1132.51 679.993 1132.82 680.011 1135.13 679.975 1137.5 680.773 1139.71 681.45 1152.96 682.206 1150.41 682.789 1158.63 684.343 1161.55 685.068 1161.84 688.084 1179.35 688.478 1179.35 689.267 1179.35 689.662 1179.35 690.116 1169.42 690.66 1177.4 690.626 1166.17L691.494 1166.18C691.59 1169.91 690.933 1173.79 692.178 1177.41 692.476 1180.91 691.871 1184.54 693.046 1187.93 693.353 1191.43 692.739 1195.06 693.923 1198.45 694.23 1201.94 693.616 1205.57 694.8 1208.97 695.168 1212.75 694.406 1216.68 695.668 1220.35 696.106 1224.44 695.203 1228.67 696.545 1232.63 696.843 1236.13 696.247 1239.76 697.413 1243.15 698.362 1258.26 698.928 1260.38 700.271 1264.78 700.692 1264.37 701.533 1263.55 701.963 1263.14 701.776 1259.32 702.753 1253.49 705.943 1248.2 706.644 1249.36 707.354 1250.54 708.073 1251.7 708.091 1252.11 708.126 1252.94 708.143 1253.35 709.037 1255.01 709.958 1256.71 711.404 1257.98 711.924 1253.15 711.675 1254.3 712.929 1249.22 713.084 1248.35 714.043 1241.18 714.481 1233.51 715.691 1229.82 714.972 1225.9 715.331 1222.11 716.672 1218.15 715.761 1213.91 716.208 1209.83 716.208 1209.83 722.968 1144.89 723.212 1141.46 724.22 1138.69 723.94 1135.72 723.94 1132.84 725.667 1132.84 727.411 1132.84 729.165 1132.83 729.165 1136.01 728.788 1139.28 729.866 1142.33 730.018 1145.85 730.014 1183.69 731.619 1188.81 732.066 1192.88 731.146 1197.12 732.496 1201.08 732.785 1204.58 732.215 1208.2 733.346 1211.59 733.958 1223.57 734.271 1221.49 735.362 1228.97 735.792 1229.37 736.651 1230.18 737.08 1230.58 737.466 1230.19 738.237 1229.41 738.623 1229.02 739.736 1225.59 740.893 1222.11 740.683 1218.44 741.034 1218.82 741.726 1219.56 742.077 1219.93 742.384 1220.92 742.708 1221.91 743.059 1222.89 743.068 1223.71 743.094 1224.54 743.129 1225.36 743.865 1226.27 744.628 1227.2 745.408 1228.1 747.103 1221.86 746.945 1222.64 747.775 1218.18 748.169 1217.8 748.95 1217.06 749.344 1216.68 749.318 1218.14 749.309 1219.61 749.3 1221.07 749.73 1221.46 750.58 1222.22 751.009 1222.61 753.602 1207.29 752.524 1190.42 755.655 1162.67L756.172 1162.67C756.429 1165.11 756.627 1167.93 758.828 1174.73 758.868 1176.48 760.899 1204.15 765.288 1219.12 765.665 1218.73 766.419 1217.95 766.796 1217.56 769.307 1197.47 766.966 1235.16 772.126 1139L772.748 1139.01C773.151 1140.57 773.59 1142.14 774.028 1143.7 774.423 1143.33 775.203 1142.56 775.597 1142.17 775.75 1136.19 775.664 1137.88 776.798 1132.81 783.337 1132.53 789.877 1132.52 796.425 1132.79 797.518 1139.07 799.487 1150.64 800.256 1157.74 800.659 1157.36 801.475 1156.6 801.887 1156.21 802.02 1152.62 803.739 1141.8 804.806 1138.76 805.183 1139.14 805.946 1139.88 806.322 1140.26 806.288 1153.22 806.419 1143.94 807.269 1153.92 807.69 1153.93 808.522 1153.93 808.943 1153.93 808.943 1152.16 808.952 1150.4 808.969 1148.65L810.687 1148.65C810.924 1153.25 809.986 1158.02 811.397 1162.5 811.783 1166.29 810.985 1170.23 812.274 1173.9 812.572 1177.4 811.976 1181.03 813.133 1184.42 813.588 1192.87 815.105 1204.07 815.728 1206.33 815.381 1213.39 824.822 1241.62 825.616 1260.37 826.045 1259.98 826.896 1259.18 827.325 1258.79 827.386 1257.36 827.465 1255.94 827.588 1254.53 828.473 1251.7 828.263 1248.7 828.438 1245.79 829.569 1242.38 828.999 1238.76 829.297 1235.27 830.463 1231.87 829.858 1228.24 830.173 1224.75 831.33 1221.35 830.743 1217.72 831.05 1214.22 831.747 1212.18 832.769 1197.64 832.83 1196.69 832.916 1196.36 833.808 1191.23 834.618 1187.76 836.66 1184.73 838.133 1181.36 839.878 1178.16 840.202 1178.53 840.842 1179.29 841.167 1179.66 844.063 1190.28 846.444 1220.36 846.444 1220.36 847.545 1237.16 848.861 1244.32 849.31 1249.14 849.722 1249.54 850.555 1250.32 850.967 1250.71 851.038 1249.84 859.673 1172.74 859.926 1164.16 860.487 1162.38 861.031 1160.6 861.653 1158.84 862.065 1159.24 862.88 1160.03 863.292 1160.42 863.301 1160.99 863.309 1162.12 863.309 1162.69 863.712 1162.69 864.528 1162.68 864.931 1162.68 866.171 1155.48 866.167 1159.54 867.052 1149.34 868.069 1145.93 867.552 1142.33 867.85 1138.83 868.516 1136.9 868.595 1134.86 868.7 1132.84 870.681 1132.83 872.68 1132.83 874.687 1132.78 875.425 1147.8 877.913 1214.17 880.139 1231.66 882.933 1226.32 883.466 1213.47 883.452 1208.62 883.978 1209.54 884.513 1210.46 885.056 1211.4 886.061 1219.99 886.347 1216.16 887.011 1223.52 887.423 1223.14 888.247 1222.35 888.668 1221.96 888.738 1220.83 888.835 1219.71 888.958 1218.59 892.035 1208.01 892.981 1138.54 894.261 1132.82 905.464 1132.49 916.676 1132.51 927.879 1132.79 930.398 1142.13 927.694 1134.43 931.044 1143.44 932.052 1143.41 933.069 1143.37 934.103 1143.34 937.809 1155.2 938.764 1179.93 940.239 1184.43 940.476 1188.17 940.011 1192.04 941.563 1195.58 943.395 1194.61 945.095 1191.42 947.331 1193.31 947.642 1195.08 948.47 1199.06 949.005 1201.05 949.101 1203.04 949.057 1205.06 949.347 1207.04 950.302 1208.82 952.529 1208.12 954.186 1208.39 956.701 1217.57 958.361 1226.02 959.051 1230.71 962.993 1228.29 963.475 1225.66 965.1 1219.18 966.205 1217.2 967.721 1215.5 969.352 1213.93 969.343 1212.8 969.343 1211.67 969.361 1210.55 969.747 1210.92 970.51 1211.68 970.895 1212.06 971.228 1213.85 971.649 1215.63 972.105 1217.42 972.464 1217.03 973.192 1216.25 973.551 1215.87 974.2 1213.49 974.954 1211.15 975.734 1208.82 976.05 1209.2 976.681 1209.97 976.996 1210.34 978.641 1217.46 977.318 1213.91 979.056 1231.41 979.485 1231.02 980.327 1230.23 980.748 1229.85 980.774 1227.85 980.818 1225.85 980.958 1223.86 982.439 1219.03 981.221 1213.91 981.826 1208.96 983.465 1202.68 981.949 1196.08 982.703 1189.68 984.386 1182.22 982.773 1174.46 983.58 1166.88 985.254 1159.43 983.65 1151.66 984.448 1144.08 985.667 1140.46 985.044 1136.59 985.132 1132.85L990.111 1132.85C992.597 1144.55 990.036 1146.44 991.978 1152.86 992.416 1156.94 991.522 1161.17 992.837 1165.14 993.547 1179.06 994.989 1181.09 995.712 1186.88 996.115 1187.28 996.913 1188.07 997.316 1188.47 999.499 1182.42 996.913 1177.36 1000.34 1166.18 1000.66 1166.18 1001.3 1166.18 1001.63 1166.18 1001.7 1167.51 1003.38 1181.69 1004.74 1186.86 1007.93 1180.08 1007.95 1139.79 1007.94 1132.81 1017.37 1132.51 1026.82 1132.54 1036.26 1132.84 1036.34 1133.94 1036.47 1135.14 1037.1 1136.11 1038.32 1135.75 1038.71 1133.98 1038.3 1132.88 1038.98 1132.88 1040.34 1132.9 1041.02 1132.9 1041.22 1134.6 1041.44 1136.3 1041.94 1137.95 1042.68 1144.06 1041.18 1150.37 1042.81 1156.36 1043.44 1161.31 1042.17 1166.45 1043.7 1171.27 1044.14 1175.34 1043.23 1179.58 1044.56 1183.54 1045.14 1189.32 1043.91 1195.29 1045.71 1200.93 1046.06 1201.29 1046.73 1202.02 1047.06 1202.39 1048.04 1200.58 1049.09 1198.81 1050.36 1197.18 1053.26 1207.12 1053.91 1217.41 1054.51 1227.31 1057.26 1223.01 1056 1219.32 1060.7 1184.05 1061.77 1182.93 1062.86 1181.82 1063.96 1180.72 1065.51 1167.51 1065.25 1162.47 1068.77 1152.58 1069.49 1153.76 1070.19 1154.96 1070.91 1156.17 1076.96 1190.72 1073.84 1219.66 1081.34 1245.78 1081.23 1250.85 1082.7 1255.77 1082.39 1260.84 1082.31 1262.85 1082.43 1264.9 1083.11 1266.82 1083.47 1273.3 1083.2 1279.81 1083.24 1286.31 1083.22 1290.13 1084.35 1293.84 1084.26 1297.67L1085.9 1297.67C1086.87 1295.14 1086.92 1292.44 1086.89 1289.78 1086.79 1287.09 1087.62 1284.52 1087.73 1281.87 1087.88 1278.56 1087.46 1275.24 1088.07 1271.97 1089.12 1267.1 1088.33 1262.09 1088.79 1257.17 1090.1 1253.2 1089.21 1248.98 1089.65 1244.9 1090.72 1241.8 1090.28 1238.48 1090.54 1235.27 1091.25 1233.23 1091.27 1231.07 1091.3 1228.94 1091.83 1228.02 1092.39 1227.1 1092.96 1226.19 1092.96 1226.88 1092.96 1228.26 1092.96 1228.96 1093.39 1229.35 1094.22 1230.15 1094.64 1230.55 1096.52 1223.9 1096.61 1214.21 1096.66 1213.34 1097.99 1209.38 1097.08 1205.16 1097.53 1201.07 1099.04 1196.25 1097.8 1191.12 1098.42 1186.17 1099.95 1181.05 1098.63 1175.63 1099.29 1170.39 1100.72 1165.61 1099.71 1160.55 1099.97 1155.65L1100.55 1155.66C1105.13 1176.6 1098.78 1176.86 1108.55 1213.32 1108.59 1217.06 1108.87 1220.79 1109.69 1224.45 1110.46 1225.68 1111.25 1226.9 1112.07 1228.11 1114.25 1209.15 1112.46 1212.02 1113.32 1203.7 1114.84 1198.58 1113.55 1193.16 1114.2 1187.92 1115.72 1182.8 1114.42 1177.38 1115.07 1172.14 1116.55 1166.99 1115.42 1161.54 1115.8 1156.26 1119.58 1154.41 1121.79 1137 1122.04 1132.81 1133.94 1132.51 1145.85 1132.52 1157.74 1132.81 1157.76 1135.12 1157.7 1137.5 1158.53 1139.71 1159.92 1155.5 1159.58 1157.16 1159.57 1160.39 1160.01 1160 1160.86 1159.25 1161.3 1158.86 1161.61 1156.67 1161.29 1157.9 1162.51 1153.91L1163.66 1153.91C1171.16 1188.17 1165.55 1250.48 1174.2 1261.48 1178.86 1251.58 1179.71 1212.65 1179.95 1210.71 1180.29 1209.68 1187.74 1144.26 1187.8 1143.39L1188.51 1143.39C1188.83 1148.87 1187.7 1154.53 1189.21 1159.87 1189.43 1163.09 1189.04 1166.39 1190.05 1169.51 1190.14 1170.86 1190.22 1172.21 1190.31 1173.58 1191.42 1175.36 1192.57 1177.13 1193.66 1178.94 1193.73 1180.79 1193.86 1182.66 1194.47 1184.43 1194.7 1187.63 1194.26 1190.96 1195.34 1194.07 1195.78 1198.14 1194.89 1202.37 1196.21 1206.33 1196.85 1211.56 1195.55 1216.99 1197.08 1222.11 1197.74 1227.64 1196.39 1233.35 1197.96 1238.77 1198.57 1249.11 1197.34 1261.55 1198.82 1265.94 1198.95 1267.93 1198.99 1269.93 1199.03 1271.93 1199.46 1272.32 1200.31 1273.11 1200.73 1273.51 1204.26 1249.91 1203.74 1240.34 1206.15 1229.27L1206.68 1229.3C1208.89 1238.69 1207.43 1234.13 1209.72 1241.92 1210.1 1241.55 1210.86 1240.78 1211.24 1240.41 1213.7 1230.55 1216.63 1167.92 1216.64 1167.05L1217.35 1167.06C1217.4 1167.51 1217.48 1168.4 1217.52 1168.84 1218.13 1168.82 1219.33 1168.77 1219.93 1168.75 1222.3 1177.2 1225.96 1212.34 1226.01 1212.48 1226.52 1216.82 1224.98 1222.61 1229.3 1225.46 1241.67 1179.18 1238.89 1160.27 1242.21 1132.78 1253.72 1132.55 1265.23 1132.55 1276.75 1132.76 1277.07 1133.89 1277.4 1135.01 1277.76 1136.13 1277.76 1136.13 1283 1194.07 1283 1194.07 1285.53 1229.75 1281.55 1202.21 1287.62 1243.88 1288.04 1244.27 1288.85 1245.05 1289.26 1245.44 1289.38 1244.57 1293.49 1219.12 1293.84 1211.3 1297.72 1218.85 1295.19 1218.37 1299.04 1224.77 1299.99 1224.37 1301 1224.13 1302.05 1224.02 1302.68 1224.85 1303.3 1225.72 1303.89 1226.63 1304.35 1226.67 1305.28 1226.76 1305.74 1226.8 1306.38 1225.71 1307.01 1224.64 1307.66 1223.56 1308.99 1217.69 1311.01 1206.61 1311.42 1201.23L1312.13 1201.25C1312.45 1207.6 1311.25 1214.13 1312.79 1220.36 1313.43 1225.6 1312.13 1231.02 1313.68 1236.15 1313.96 1239.65 1313.41 1243.26 1314.52 1246.66 1314.62 1248.18 1314.69 1249.72 1314.78 1251.25L1316.46 1251.25C1316.49 1250.38 1318.79 1225.59 1321.12 1215.9 1321.48 1216.27 1322.19 1217.01 1322.54 1217.38 1322.56 1219.56 1322.57 1221.79 1323.3 1223.87 1323.49 1226.8 1323.21 1229.82 1324.2 1232.64 1324.45 1236.74 1323.69 1236.1 1326.36 1254.45 1328.13 1250.93 1327.97 1246.98 1328.11 1243.15 1329.52 1238.6 1328.41 1233.79 1328.97 1229.12 1330.58 1223.13 1329.12 1216.83 1329.85 1210.72 1331.48 1204.43 1329.96 1197.84 1330.72 1191.43 1332.31 1185.73 1330.88 1179.72 1331.59 1173.9 1333.15 1167.5 1331.91 1160.79 1332.28 1154.25 1332.71 1153.88 1333.56 1153.11 1333.99 1152.73 1333.96 1155.12 1333.88 1157.58 1334.72 1159.88 1334.91 1162.8 1334.62 1165.82 1335.6 1168.64 1336.06 1172.71 1335.13 1176.96 1336.48 1180.92 1336.93 1185 1336.01 1189.23 1337.36 1193.18 1337.72 1196.98 1336.97 1200.91 1338.22 1204.59 1339.26 1221.82 1339.87 1221.24 1341.2 1226.38 1341.63 1226.82 1342.49 1227.69 1342.92 1228.12 1343.74 1226.91 1344.55 1225.7 1345.37 1224.48 1348.29 1211.46 1350.69 1208.85 1351.8 1191.44 1352.98 1186.9 1358.65 1133.69 1358.67 1132.82 1371.78 1132.49 1384.91 1132.52 1398.02 1132.82 1397.95 1158.36 1397.78 1158.15 1398.72 1160.74 1399.42 1166.57 1397.98 1172.58 1399.59 1178.28 1400.21 1183.23 1398.95 1188.35 1400.47 1193.18 1400.96 1197.56 1399.96 1202.08 1401.33 1206.34 1401.88 1218.4 1402.11 1213.03 1403.3 1222.97 1405.15 1224.02 1407.2 1224.95 1408.37 1226.86 1419.33 1225 1415.35 1197.46 1422.1 1162.77L1422.1 1119.85C1421.92 1118.93 1421.76 1117.92 1421.61 1116.75 1421.06 1115.81 1420.54 1114.87 1420.03 1113.93 1416.45 1094.04 1419.56 1110.07 1417.13 1075.7 1416.83 1074.83 1414.65 1055.95 1414.59 1055.24 1413.89 1054.35 1413.23 1053.45 1412.54 1052.57 1409.92 1061.43 1407.72 1084.68 1407.57 1090.44 1406.68 1089.25 1405.83 1088.03 1405.01 1086.82L1405.01 1085.19C1404.02 1083.45 1403.06 1081.7 1402.08 1079.98 1401.64 1080.49 1400.77 1081.52 1400.33 1082.04 1399.38 1082.04 1398.45 1082.03 1397.54 1082.03 1396.83 1081.32 1396.14 1080.61 1395.47 1079.9 1394.64 1074.71 1394.55 1075.96 1393.47 1060.81 1392.2 1057.13 1393 1053.2 1392.59 1049.4 1391.39 1046.02 1392.06 1042.39 1391.71 1038.89 1390.89 1036.19 1390.99 1033.35 1390.55 1030.6 1390.34 1030.24 1389.93 1029.52 1389.72 1029.16 1389.09 1026.01 1389.26 1022.79 1389.08 1019.6 1388.03 1016.63 1387.38 1003.82 1387.32 1002.95 1385.62 998.077 1386.16 969.382 1382 958.409L1381.62 958.418C1381.39 958.997 1380.92 960.154 1380.69 960.741 1380.29 964.662 1369.64 1070.09 1368.98 1073.26L1368.27 1073.27C1368.02 1065.77 1368.28 1069.45 1367.06 1063.62L1365.83 1063.62C1363.85 1071.17 1363.98 1070.23 1363.71 1072.69 1363.45 1073.31 1362.94 1074.56 1362.68 1075.17 1361.6 1074.75 1360.56 1074.32 1359.53 1073.9 1356.07 1086.87 1357.37 1100.05 1353.98 1132.06 1348.81 1132.27 1343.65 1132.33 1338.51 1132.06 1336.14 1127.48 1338.77 1122.02 1336.83 1117.28 1331.78 1067.59 1334.16 1094.8 1327.79 1052.8 1327.43 1053.17 1326.7 1053.91 1326.33 1054.28 1323.13 1078.67 1322.53 1107.65 1322.46 1108.52 1321.56 1110.96 1321.65 1111.5 1321.75 1132.07 1317.12 1132.28 1312.5 1132.27 1307.88 1132.07 1307.81 1130.98 1307.12 1121.93 1304.47 1112.11 1302.86 1106.03 1302.22 1077.78 1298.94 1066.72 1298.55 1067.12 1297.78 1067.93 1297.39 1068.34 1297.39 1068.34 1294.96 1086.16 1294.96 1086.16 1293.09 1094.12 1292.92 1093.91 1292.76 1098.28 1291.86 1099.64 1290.93 1100.96 1289.98 1102.27 1288.95 1101.49 1287.96 1100.72 1286.95 1099.97 1282.01 1116.24 1285.55 1125.01 1283.12 1132.02 1281.38 1132.03 1279.64 1132.04 1277.92 1132.09 1277.77 1128.03 1278.53 1123.84 1277.23 1119.92 1276.63 1115.25 1277.81 1110.42 1276.35 1105.89 1275.81 1101.53 1276.86 1096.99 1275.48 1092.74 1275.24 1089.76 1275.27 1086.77 1275.3 1083.78L1274.5 1083.78C1274.41 1085.31 1274.33 1086.83 1274.22 1088.37 1273.18 1091.41 1273.55 1094.65 1273.56 1097.81L1272.67 1097.81C1272.22 1062.66 1270.38 1025.1 1262.88 957.159 1262.19 955.984 1261.52 954.827 1260.84 953.67 1259.79 955.081 1258.79 956.51 1257.88 958 1257.14 962.308 1257.36 961.106 1256.32 965.153 1252.88 977.488 1247.42 1031.88 1247.42 1031.88 1247.06 1035.38 1247.73 1039.02 1246.55 1042.4 1244.25 1065.31 1246.99 1066.2 1243.94 1078.33 1243.76 1080.97 1243.9 1083.68 1243.05 1086.22 1242.82 1089.27 1242.89 1092.32 1242.68 1095.37 1241.18 1100.2 1242.44 1105.32 1241.8 1110.28 1240.23 1115.68 1241.64 1121.4 1240.93 1126.92 1240.41 1128.6 1240.2 1130.35 1240.02 1132.09 1233.37 1132.3 1226.73 1132.35 1220.09 1132.05 1220.15 1121.52 1219.56 1127.61 1219.12 1119.72L1218.42 1119.72C1217.45 1127.17 1217.34 1122.62 1217.44 1132 1216.26 1131.99 1215.09 1131.99 1213.94 1132 1214.02 1122.64 1212.42 1115.7 1211.9 1112.19 1208.74 1113.99 1206.93 1128.82 1206.78 1132.08 1200.79 1132.34 1194.8 1132.31 1188.82 1132.05 1186.14 1123.75 1188.98 1119.24 1186.94 1112.03 1186.29 1107.08 1187.57 1101.96 1186.06 1097.13 1185.78 1093.5 1185.97 1089.85 1185.71 1086.22 1184.98 1084.12 1184.19 1069.13 1183.65 1066.51 1182.51 1061.98 1182.51 1061.91 1182.36 1059.69 1181.53 1058.48 1180.69 1057.27 1179.83 1056.07 1179.8 1055.68 1179.74 1054.88 1179.71 1054.49 1178.58 1052.39 1177.36 1050.36 1175.9 1048.48 1175.01 1049.44 1174.14 1050.39 1173.27 1051.36 1172.78 1051.36 1171.8 1051.35 1171.31 1051.35 1171.03 1051.93 1170.47 1053.09 1170.19 1053.67 1170.15 1056.06 1170.21 1058.51 1169.42 1060.8 1168.9 1068.81 1169.56 1076.85 1169.06 1084.85 1167.35 1089.54 1169.36 1094.68 1167.65 1099.37 1167.48 1101.66 1167.45 1103.95 1167.46 1106.25 1167.03 1106.63 1166.16 1107.38 1165.73 1107.77 1165.74 1105.08 1165.98 1102.31 1165.02 1099.76 1164.43 1095.1 1165.59 1090.27 1164.15 1085.73 1163.71 1080.35 1164.22 1074.95 1163.79 1069.56 1162.2 1063.87 1163.64 1057.85 1162.91 1052.03 1161.52 1047.78 1162.58 1043.25 1162.04 1038.88 1161.14 1036.53 1161.29 1033.97 1161.31 1031.5 1160.89 1031.13 1160.02 1030.38 1159.59 1030.01 1159.32 1034.71 1160.3 1039.58 1158.89 1044.14 1158.47 1047.93 1159.27 1051.87 1158.01 1055.54 1157.46 1059.91 1158.54 1064.44 1157.13 1068.69 1156.77 1073.19 1157.15 1077.72 1156.78 1082.22 1155.34 1086.99 1156.36 1092.04 1156.08 1096.93L1155.21 1096.93C1155.2 1094.06 1155.5 1091.1 1154.5 1088.36 1154.26 1085.02 1154.38 1081.67 1154.15 1078.33 1152.8 1074.48 1151.64 1044.47 1148.81 1038.39 1144.71 1038.72 1144.12 1037.04 1141.72 1022.2 1140.86 1018.76 1141.24 1015.18 1141.05 1011.67 1135.06 991.705 1135.27 980.6 1132.31 968.668 1131.9 969.045 1131.07 969.808 1130.66 970.184 1126.62 1039.02 1117.4 1131.18 1117.22 1132.05 1110.98 1132.32 1104.74 1132.33 1098.5 1132.04 1096.41 1124.8 1098.54 1131.97 1096.03 1120.96 1094.32 1122.15 1093.69 1123.82 1092.76 1132.04 1086.22 1132.32 1079.67 1132.31 1073.13 1132.07 1072.84 1131.47 1072.27 1130.26 1071.98 1129.65 1071.54 1124.08 1072.73 1118.34 1071.24 1112.9 1070.58 1107.95 1071.86 1102.82 1070.35 1098 1070.04 1094.08 1070.31 1090.14 1070 1086.22 1068.82 1082.83 1069.46 1079.2 1069.13 1075.7 1067.93 1072.32 1068.59 1068.69 1068.26 1065.18 1067.15 1062.08 1067.63 1058.75 1067.37 1055.55 1066.38 1052.72 1066.69 1049.71 1066.48 1046.78 1065.84 1044.96 1065.75 1043.03 1065.68 1041.12 1065.27 1040.75 1064.44 1040 1064.03 1039.64 1064.01 1041.15 1064.63 1048.83 1062.01 1059.75 1059.92 1056 1059.64 1048.46 1059.45 1045.03 1058.72 1042.93 1058.73 1040.7 1058.72 1038.51 1058.31 1038.14 1057.48 1037.39 1057.07 1037.02 1057.05 1039.41 1057.18 1041.86 1056.32 1044.14 1054.7 1057.19 1054.4 1101.39 1054.21 1105.01 1052.96 1108.54 1054.22 1112.53 1052.13 1115.82 1049.07 1102.63 1048.14 1073.94 1048.08 1073.07 1047.89 1072.51 1045.54 1049.72 1045.51 1048.72L1044.82 1048.72C1044.75 1049.59 1043.77 1061.9 1043.19 1063.43 1042.86 1067.35 1043.13 1071.29 1042.83 1075.21 1041.02 1080.47 1043.23 1086.21 1041.42 1091.48 1041.09 1095.92 1041.28 1100.38 1041.25 1104.83L1040.4 1104.81C1040.39 1102.41 1040.36 1100.01 1040.19 1097.61 1038.23 1090.9 1040.75 1083.68 1038.79 1076.97 1038.37 1071.88 1038.85 1066.76 1038.44 1061.67 1036.9 1056.55 1038.23 1051.12 1037.56 1045.89 1036.22 1041.93 1037.17 1037.7 1036.69 1033.62 1035.22 1028.76 1036.32 1023.6 1035.94 1018.61 1035.66 1018.03 1035.09 1016.86 1034.81 1016.28L1034.47 1016.26C1032.09 1022.64 1032.63 1026.13 1029.75 1031.3 1028.66 1031.24 1027.59 1031.2 1026.53 1031.16 1026.23 1033.72 1025.96 1037.73 1023.3 1043.77 1022.23 1043.32 1021.16 1042.86 1020.13 1042.39 1019.23 1043.43 1018.38 1044.51 1017.56 1045.61 1016.02 1059.96 1015.95 1070.89 1011.04 1105.48 1010.4 1106.87 1009.43 1108.04 1008.14 1108.86 1007.5 1098.88 1005.87 1094.63 1005.24 1088.48 1004.84 1088.11 1004.05 1087.37 1003.65 1087 999.656 1112.96 1000.04 1118.52 998.023 1125.86L997.497 1125.87C992.493 1096.84 993.252 1093.8 990.905 1085.17 988.941 1085.48 987.74 1086.73 987.442 1088.68 985.987 1090.33 984.584 1092.02 983.374 1093.85 983.261 1094.72 977.933 1120.11 978.132 1132.05 970.926 1132.36 963.712 1132.33 956.506 1132.05 954.916 1125.09 954.918 1109.52 952.474 1092 950.025 1096.25 950.907 1101.17 949.073 1109.2L948.451 1109.2C948.355 1107.2 948.284 1105.18 947.653 1103.26 947.46 1100.8 947.425 1098.32 947.25 1095.86 947.036 1095.27 944.709 1074.68 944.699 1074.47 944.357 1074.1 943.665 1073.38 943.323 1073.01 940.699 1080.1 941.343 1088.13 939.387 1113.77 938.444 1116.45 938.175 1128.08 936.924 1132.02L936.345 1132.01C936.082 1131.43 935.548 1130.25 935.276 1129.66 935.232 1127.27 935.294 1124.82 934.478 1122.54 933.996 1118.46 934.934 1114.23 933.601 1110.27 933.058 1105.9 934.127 1101.37 932.725 1097.12 932.453 1093.49 932.637 1089.85 932.374 1086.22 930.165 1079.87 933.61 1072.59 930.148 1066.6 928.489 1076.71 929.226 1072.61 928.859 1078.71 927.535 1082.68 928.464 1086.91 927.991 1090.99 926.343 1095.39 928.219 1100.23 926.597 1104.63 926.334 1107.9 926.395 1111.18 926.413 1114.46L925.554 1114.47C925.554 1111.77 925.563 1109.06 925.352 1106.38 925.352 1106.38 923.458 1091.57 921.793 1079.74 920.768 1081.9 919.299 1086.09 918.374 1091.2 917.664 1092.4 916.954 1093.61 916.226 1094.8 912.82 1087.61 912.225 1079.25 911.931 1077.1 906.306 1064.6 907.369 1051.76 904.261 1043.43L903.858 1043.43C900.355 1053.21 904.293 1045.31 897.853 1081.75 897.669 1082.11 897.301 1082.83 897.125 1083.19 896.801 1084.92 896.555 1086.66 896.284 1088.39 895.337 1092.11 895.889 1095.97 895.565 1099.75 894.276 1103.42 895.092 1107.35 894.68 1111.15 894.086 1113.05 893.046 1121.27 892.962 1122.14 891.84 1122.89 890.718 1123.61 889.613 1124.36 889.227 1129.98 889.743 1125.63 888.438 1132.07 884.485 1132.25 880.531 1132.25 876.586 1132.12 876.481 1130.07 876.428 1127.99 875.744 1126.04 875.332 1122.25 876.139 1118.31 874.859 1114.65 874.526 1111.15 875.166 1107.52 874 1104.14 873.509 1097.59 874.123 1091.01 873.632 1084.46 873.632 1084.46 868.116 1029.95 864.787 1017.16L863.314 1017.16C863.329 1021.95 862.37 1031.74 861.719 1033.62 861.368 1037.12 862.026 1040.76 860.842 1044.14 860.351 1048.22 861.307 1052.45 859.965 1056.41 859.474 1060.49 860.421 1064.72 859.088 1068.69 858.808 1072.31 859.009 1075.96 858.738 1079.59 857.476 1083.26 858.273 1087.2 857.87 1090.99 856.581 1094.65 857.397 1098.59 856.993 1102.38 855.704 1106.05 856.511 1109.98 856.116 1113.77 854.687 1118.01 855.765 1122.55 855.222 1126.92 854.705 1128.6 854.494 1130.34 854.31 1132.08 850.681 1132.2 847.061 1132.2 843.449 1132.09 843.09 1130.96 842.73 1129.84 842.371 1128.73 841.817 1113.26 843.034 1107.38 841.556 1103.26 841.058 1095.73 841.46 1044.08 835.902 1024.54 829.473 1023.49 832.679 1012.85 828.845 1003.12L828.407 1003.13C823.964 1046.45 826.042 1063.21 824.55 1081.34 822.92 1085.75 824.76 1090.58 823.165 1094.98 822.981 1097.45 822.946 1099.92 822.77 1102.38 822.104 1104.39 822.034 1106.52 821.946 1108.62 821.701 1109.27 821.201 1110.55 820.956 1111.19 820.605 1110.83 819.895 1110.1 819.545 1109.74 819.411 1103.09 819.32 1108.98 818.379 1096.74 816.976 1092.9 818.458 1088.68 817.02 1084.85 816.678 1080.42 816.871 1075.95 816.836 1071.51L815.214 1071.51C815.172 1072.38 814.072 1084.56 813.505 1086.22 813.259 1089.56 813.391 1092.91 813.154 1096.25 811.752 1100.49 812.812 1105.02 812.277 1109.39 810.804 1113.93 811.996 1118.76 811.392 1123.41 810.393 1126.17 810.664 1129.14 810.682 1132.01 810.244 1132 809.385 1132 808.946 1131.99 808.855 1130.22 806.132 1070.44 806.132 1070.44 806.094 1070.33 800.676 1019.63 799.224 1014.18 798.865 1014.56 798.146 1015.33 797.778 1015.71 796.724 1020.44 796.783 1018.29 796.621 1025.08 796.323 1025.06 795.736 1025.01 795.438 1024.99 794.5 1023.66 793.51 1022.38 792.519 1021.09 789.696 1035.41 788.08 1057.64 786.549 1065.97 786.365 1066.33 785.997 1067.05 785.813 1067.41 785.532 1068.77 785.287 1070.14 785.059 1071.51L784.402 1071.51C784.43 1063.78 782.812 1054.35 781.553 1046.61 781.036 1047.49 780.527 1048.38 780.037 1049.26 780.019 1052.23 780.352 1055.31 779.327 1058.17 778.722 1062.82 779.888 1067.65 778.451 1072.19 777.697 1078.3 779.161 1084.6 777.583 1090.6 777.452 1092.23 777.381 1093.88 777.329 1095.52 776.785 1096.46 776.242 1097.4 775.716 1098.33 774.729 1107.52 775.389 1096.73 774.576 1110.26 773.331 1113.94 774.103 1117.86 773.717 1121.66 772.516 1125 773.06 1128.59 773.016 1132.06 766.284 1132.31 759.56 1132.35 752.837 1132.07 752.793 1128.59 753.31 1125.01 752.153 1121.66 751.504 1116.72 752.775 1111.59 751.268 1106.77 750.961 1102.84 751.216 1098.9 750.917 1094.98 749.304 1088.99 750.768 1082.67 750.049 1076.55 748.71 1071.5 749.531 1071.54 746.446 1061.57 745.292 1056.82 745.715 1057.09 743.825 1051.98 743.474 1052.35 742.756 1053.08 742.396 1053.45 738.806 1082.17 739.759 1077.81 737.136 1082.56 736.535 1087.48 735.494 1088.48 734.305 1095.56 733.595 1096.75 732.902 1097.92 732.192 1099.1 731.911 1098.41 731.359 1097.05 731.079 1096.36 730.832 1091.87 730.671 1091.49 729.913 1088.17 729.527 1088.17 728.738 1088.17 728.344 1088.16 728.3 1089.52 728.239 1090.87 728.186 1092.23 725.119 1085.8 727.276 1084.43 726.363 1073.95 724.917 1069.41 726.091 1064.58 725.495 1059.92 724.469 1057.07 724.785 1054.01 724.75 1051.05 724.461 1050.46 723.882 1049.31 723.584 1048.72L723.111 1048.72C722.281 1055.61 721.483 1056.18 721.235 1063.93 720.814 1063.55 719.973 1062.8 719.552 1062.43 719.543 1060.12 719.517 1057.83 719.359 1055.54 718.176 1052.15 718.824 1048.53 718.482 1045.03 717.29 1041.64 717.947 1038.01 717.614 1034.51 716.413 1031.12 717.071 1027.49 716.729 1023.99 716.729 1023.99 713.214 997.325 713.214 997.324 712.89 996.956 712.232 996.228 711.908 995.869 709.818 1006.26 711.033 1043.29 706.28 1071.81 705.885 1071.43 705.105 1070.69 704.72 1070.31 702.213 1060.49 702.048 1041.35 702.003 1040.48 701.442 1039.58 700.89 1038.69 700.346 1037.8 700.276 1039.93 700.293 1042.11 699.54 1044.14 699.128 1047.93 699.935 1051.87 698.681 1055.54 697.971 1061.07 699.356 1066.79 697.804 1072.2 697.331 1078.16 697.9 1084.15 697.436 1090.11 695.823 1096.11 697.313 1102.41 696.559 1108.52 695.113 1113.06 696.278 1117.89 695.691 1122.54 694.595 1125.59 694.99 1128.86 694.99 1132.03L689.739 1132.03C689.406 1126.54 690.519 1120.89 689.038 1115.54 688.319 1110.01 689.73 1104.28 688.153 1098.88 687.61 1094.52 688.661 1089.98 687.285 1085.73 687.066 1082.68 687.127 1079.62 686.917 1076.58 686.295 1074.57 686.146 1072.48 685.97 1070.41 682.232 1053.38 684.6 1057.7 678.948 1024.76 674.237 1009.48 674.453 978.407 671.97 966.635 671.646 966.276 671.006 965.539 670.69 965.171 670.41 966.652 670.146 968.143 669.84 969.615 669.755 970.483 666.017 1005.99 664.642 1012.52 663.071 1019.73 663.049 1031.96 661.854 1035.39 661.503 1038.88 662.161 1042.51 660.977 1045.9 660.486 1049.97 661.442 1054.21 660.1 1058.17 659.504 1062.82 660.679 1067.65 659.223 1072.19 658.881 1076.41 659.214 1080.65 658.872 1084.85 657.408 1089.39 658.6 1094.22 657.987 1098.88 657.426 1100.6 657.268 1102.41 657.119 1104.21 656.751 1103.86 656.014 1103.16 655.646 1102.8 652.326 1122.41 654.312 1120.93 653.779 1132.09 640.358 1132.29 626.937 1132.37 613.525 1132.07 613.031 1130.35 609.796 1110.52 608.87 1098.49 607.573 1094.93 608.844 1091.03 607.511 1087.48 607.318 1084.72 607.327 1081.96 607.143 1079.21 605.565 1073.5 607.003 1067.5 606.266 1061.68 605.737 1060.06 604.501 1049.39 604.408 1048.52 603.303 1044.51 604.066 1040.33 603.645 1036.25 601.988 1029.69 603.54 1022.79 602.76 1016.09 601.121 1009.53 602.655 1002.63 601.883 995.929 600.27 989.942 601.752 983.639 601.006 977.529 599.551 972.988 600.726 968.158 600.138 963.503 599.288 961.215 599.375 958.761 599.349 956.376 599.068 955.789 598.525 954.623 598.253 954.044L597.85 954.044C597.299 959.698 595.876 975.743 590.983 1097.05L590.983 1181.74C592.953 1162.8 595.264 1140.59 595.264 1140.59 596.119 1138.08 595.978 1135.41 595.97 1132.8Z"/></svg>